<?xml version="1.0" encoding="UTF-8"?>
<!DOCTYPE svg PUBLIC "-//W3C//DTD SVG 1.1//EN" "http://www.w3.org/Graphics/SVG/1.1/DTD/svg11.dtd">
<!-- Creator: CorelDRAW Home & Student 2019 -->
<svg xmlns="http://www.w3.org/2000/svg" xml:space="preserve" width="500mm" height="500mm" version="1.1" style="shape-rendering:geometricPrecision; text-rendering:geometricPrecision; image-rendering:optimizeQuality; fill-rule:evenodd; clip-rule:evenodd"
viewBox="0 0 50000 50000"
 xmlns:xlink="http://www.w3.org/1999/xlink">
 <defs>
  <style type="text/css">
   <![CDATA[
    .str0 {stroke:black;stroke-width:70.56;stroke-miterlimit:22.9256}
    .str1 {stroke:black;stroke-width:35.28;stroke-miterlimit:22.9256}
    .str2 {stroke:black;stroke-width:20;stroke-miterlimit:22.9256}
    .fil0 {fill:none}
    .fil1 {fill:black}
   ]]>
  </style>
 </defs>
 <g id="Ebene_x0020_1">
  <metadata id="CorelCorpID_0Corel-Layer"/>
  <path class="fil0 str0" d="M24997.93 22502.07l0 1500m-599.99 0l599.99 2000 -6.57 1498.59"/>
  <line class="fil0 str0" x1="23297.93" y1="24752.07" x2="23297.93" y2= "25752.07" />
  <polyline class="fil0 str0" points="24197.93,25252.07 24097.93,25252.07 23797.93,25752.07 23453.31,25252.07 23297.93,25252.07 "/>
  <line class="fil0 str0" x1="24747.93" y1="23252.07" x2="25247.93" y2= "23752.07" />
  <line class="fil0 str0" x1="25247.93" y1="23252.07" x2="24747.93" y2= "23752.07" />
  <line class="fil0 str0" x1="24697.93" y1="24002.07" x2="25297.93" y2= "24002.07" />
  <line class="fil0 str0" x1="24359.07" y1="25252.07" x2="24559.07" y2= "25252.07" />
  <polyline class="fil0 str1" points="24170.23,24918.33 24277.29,24871.38 24231.96,24768.02 24469.42,24663.87 24514.75,24767.23 24597.93,24730.75 "/>
  <g id="_603514824">
   <polygon class="fil1 str2" points="24335.38,24419.84 24316.53,24380.9 24219.77,24475.79 24353.38,24457.04 "/>
   <line class="fil0 str2" x1="24473.66" y1="24351.82" x2="24240.33" y2= "24464.76" />
  </g>
 </g>
</svg>
